<?xml version="1.0"?>
<svg xmlns="http://www.w3.org/2000/svg" xmlns:xlink="http://www.w3.org/1999/xlink" xmlns:svgjs="http://svgjs.com/svgjs" version="1.1" width="512" height="512" x="0" y="0" viewBox="0 0 512 512" style="enable-background:new 0 0 512 512" xml:space="preserve" class=""><g>
<g xmlns="http://www.w3.org/2000/svg">
	<g>
		<path d="M34.103,261.27c-0.13-0.64-0.32-1.27-0.57-1.87c-0.25-0.6-0.56-1.18-0.92-1.72c-0.36-0.55-0.78-1.06-1.24-1.52    c-0.46-0.47-0.98-0.88-1.52-1.25c-0.55-0.36-1.13-0.67-1.73-0.92s-1.23-0.44-1.87-0.57c-1.29-0.26-2.62-0.26-3.91,0    c-0.64,0.13-1.27,0.32-1.87,0.57s-1.18,0.56-1.73,0.92c-0.54,0.37-1.05,0.78-1.52,1.25c-0.46,0.46-0.87,0.97-1.24,1.52    c-0.36,0.54-0.67,1.12-0.92,1.72c-0.25,0.61-0.44,1.23-0.57,1.87c-0.13,0.65-0.19,1.31-0.19,1.96s0.059,1.31,0.19,1.95    c0.13,0.64,0.32,1.27,0.57,1.87c0.25,0.6,0.56,1.19,0.92,1.73c0.37,0.55,0.78,1.06,1.24,1.52c0.47,0.46,0.98,0.88,1.52,1.24    c0.549,0.36,1.129,0.67,1.729,0.92c0.6,0.25,1.23,0.44,1.87,0.57c0.65,0.13,1.3,0.2,1.961,0.2c0.65,0,1.3-0.07,1.95-0.2    c0.64-0.13,1.27-0.32,1.87-0.57s1.18-0.56,1.73-0.92c0.54-0.36,1.06-0.78,1.52-1.24s0.88-0.97,1.24-1.52    c0.36-0.54,0.67-1.13,0.92-1.73c0.25-0.6,0.44-1.23,0.57-1.87s0.2-1.3,0.2-1.95C34.303,262.58,34.233,261.92,34.103,261.27z" fill="#8b8787" data-original="#000000" style=""/>
	</g>
</g>
<g xmlns="http://www.w3.org/2000/svg">
	<g>
		<path d="M355.954,119.595c-0.13-0.63-0.32-1.26-0.57-1.87c-0.25-0.6-0.56-1.18-0.92-1.72c-0.37-0.55-0.78-1.06-1.25-1.52    c-0.46-0.46-0.97-0.88-1.52-1.24c-0.54-0.36-1.12-0.67-1.72-0.92c-0.6-0.25-1.23-0.45-1.87-0.57c-1.29-0.26-2.62-0.26-3.91,0    c-0.64,0.12-1.27,0.32-1.87,0.57c-0.61,0.25-1.19,0.56-1.73,0.92c-0.55,0.36-1.06,0.78-1.52,1.24s-0.88,0.97-1.24,1.52    c-0.36,0.54-0.67,1.12-0.92,1.72c-0.25,0.61-0.44,1.24-0.57,1.87c-0.13,0.65-0.2,1.31-0.2,1.961c0,0.65,0.07,1.31,0.2,1.95    c0.13,0.64,0.32,1.27,0.57,1.87c0.25,0.61,0.56,1.19,0.92,1.73c0.36,0.55,0.78,1.06,1.24,1.52s0.97,0.88,1.52,1.24    c0.54,0.36,1.12,0.67,1.73,0.92c0.6,0.25,1.23,0.44,1.87,0.57s1.3,0.2,1.95,0.2c0.66,0,1.31-0.07,1.96-0.2    c0.64-0.13,1.27-0.32,1.87-0.57c0.6-0.25,1.18-0.56,1.72-0.92c0.55-0.36,1.06-0.78,1.52-1.24c0.47-0.46,0.88-0.97,1.25-1.52    c0.36-0.54,0.67-1.12,0.92-1.73c0.25-0.6,0.44-1.23,0.57-1.87c0.13-0.64,0.19-1.3,0.19-1.95S356.084,120.246,355.954,119.595z" fill="#8b8787" data-original="#000000" style=""/>
	</g>
</g>
<g xmlns="http://www.w3.org/2000/svg">
	<g>
		<path d="M256,153.973c-56.258,0-102.027,45.77-102.027,102.027c0,56.258,45.77,102.027,102.027,102.027    s102.027-45.769,102.027-102.027C358.027,199.742,312.258,153.973,256,153.973z M256,338.026    c-45.23,0-82.026-36.796-82.026-82.026S210.77,173.974,256,173.974s82.026,36.796,82.026,82.026S301.23,338.026,256,338.026z" fill="#8b8787" data-original="#000000" style=""/>
	</g>
</g>
<g xmlns="http://www.w3.org/2000/svg">
	<g>
		<path d="M256,194.275c-34.036,0-61.726,27.69-61.726,61.725c0,34.036,27.69,61.726,61.726,61.726s61.726-27.69,61.726-61.726    C317.725,221.965,290.036,194.275,256,194.275z M256,297.725c-23.007,0-41.725-18.718-41.725-41.726    c0-23.007,18.718-41.724,41.725-41.724s41.725,18.718,41.725,41.724C297.725,279.007,279.007,297.725,256,297.725z" fill="#8b8787" data-original="#000000" style=""/>
	</g>
</g>
<g xmlns="http://www.w3.org/2000/svg">
	<g>
		<path d="M382.18,139.34c-3.75-4.054-10.077-4.3-14.131-0.549c-4.054,3.751-4.3,10.078-0.549,14.131    c26.066,28.173,40.421,64.78,40.421,103.078c0,68.035-46.042,128.032-110.808,146.269c-5.46-17.513-21.825-30.262-41.112-30.262    c-19.287,0-35.652,12.749-41.112,30.262C150.116,384.033,104.08,324.051,104.08,256c0-67.94,46.076-128.029,110.808-146.268    c5.46,17.513,21.825,30.261,41.112,30.261c23.739,0,43.052-19.313,43.052-43.052S279.739,53.89,256,53.89    c-21.156,0-38.795,15.339-42.384,35.478c-35.408,9.029-67.46,29.463-90.782,58.003c-24.991,30.583-38.754,69.161-38.754,108.628    c0,39.616,13.856,78.309,39.017,108.949c23.31,28.386,55.243,48.685,90.518,57.682c3.588,20.141,21.229,35.479,42.384,35.479    c21.156,0,38.796-15.339,42.385-35.479c35.294-9.001,67.245-29.32,90.557-57.727C414.077,334.271,427.92,295.595,427.92,256    C427.92,212.652,411.676,171.221,382.18,139.34z M256,73.891c12.71,0,23.051,10.34,23.051,23.051S268.71,119.993,256,119.993    c-12.71,0-23.051-10.34-23.051-23.051C232.949,84.232,243.29,73.891,256,73.891z M256,438.11c-12.71,0-23.051-10.34-23.051-23.051    c0-12.71,10.34-23.051,23.051-23.051c12.71,0,23.051,10.34,23.051,23.051C279.051,427.769,268.711,438.11,256,438.11z" fill="#8b8787" data-original="#000000" style=""/>
	</g>
</g>
<g xmlns="http://www.w3.org/2000/svg">
	<g>
		<path d="M491.518,310.934c4.18-17.935,6.296-36.377,6.296-54.934c0-133.337-108.478-241.815-241.815-241.815    c-81.368,0-156.708,40.593-201.757,108.642c-20.323-5.486-42.185,4.673-50.74,24.563c-9.38,21.807,0.73,47.18,22.537,56.559    c5.528,2.378,11.283,3.503,16.952,3.503c16.689,0,32.605-9.761,39.608-26.04c7.466-17.358,2.583-36.974-10.717-48.987    C113.325,70.858,181.945,34.185,256,34.185c122.308,0,221.814,99.505,221.814,221.814c0,16.44-1.809,32.775-5.382,48.685    c-17.901-1.438-35.55,8.513-43.031,25.903c-7.467,17.359-2.583,36.977,10.72,48.99c-41.431,61.68-109.62,98.235-184.122,98.235    c-105.781,0-197.326-75.294-217.675-179.031c-1.063-5.419-6.314-8.952-11.738-7.888c-5.419,1.063-8.951,6.318-7.888,11.738    c22.185,113.097,121.983,195.183,237.3,195.183c41.938,0,83.284-10.955,119.571-31.681c32.952-18.822,61.231-45.33,82.185-76.96    c3.69,0.996,7.429,1.476,11.133,1.476c16.69,0,32.605-9.762,39.607-26.04C517.039,344.751,509.417,321.937,491.518,310.934z     M64.226,173.51c-5.024,11.676-18.61,17.087-30.284,12.066c-11.675-5.022-17.089-18.608-12.066-30.284    c3.749-8.716,12.27-13.942,21.207-13.942c3.034,0,6.117,0.603,9.076,1.876C63.835,148.249,69.248,161.834,64.226,173.51z     M490.124,356.707c-5.023,11.675-18.607,17.089-30.283,12.066h0.001c-11.676-5.022-17.09-18.608-12.067-30.284    c5.023-11.675,18.609-17.09,30.283-12.066C489.732,331.446,495.146,345.031,490.124,356.707z" fill="#8b8787" data-original="#000000" style=""/>
	</g>
</g>
<g xmlns="http://www.w3.org/2000/svg">
</g>
<g xmlns="http://www.w3.org/2000/svg">
</g>
<g xmlns="http://www.w3.org/2000/svg">
</g>
<g xmlns="http://www.w3.org/2000/svg">
</g>
<g xmlns="http://www.w3.org/2000/svg">
</g>
<g xmlns="http://www.w3.org/2000/svg">
</g>
<g xmlns="http://www.w3.org/2000/svg">
</g>
<g xmlns="http://www.w3.org/2000/svg">
</g>
<g xmlns="http://www.w3.org/2000/svg">
</g>
<g xmlns="http://www.w3.org/2000/svg">
</g>
<g xmlns="http://www.w3.org/2000/svg">
</g>
<g xmlns="http://www.w3.org/2000/svg">
</g>
<g xmlns="http://www.w3.org/2000/svg">
</g>
<g xmlns="http://www.w3.org/2000/svg">
</g>
<g xmlns="http://www.w3.org/2000/svg">
</g>
</g></svg>
