<?xml version="1.0"?>
<svg xmlns="http://www.w3.org/2000/svg" xmlns:xlink="http://www.w3.org/1999/xlink" xmlns:svgjs="http://svgjs.com/svgjs" version="1.1" width="512" height="512" x="0" y="0" viewBox="0 0 512 512" style="enable-background:new 0 0 512 512" xml:space="preserve" class=""><g><g xmlns="http://www.w3.org/2000/svg"><path d="m345 30h-65v-15c0-8.284-6.716-15-15-15h-140c-8.284 0-15 6.716-15 15v15h-65c-24.813 0-45 20.187-45 45v392c0 24.813 20.187 45 45 45h300c24.813 0 45-20.187 45-45v-392c0-24.813-20.187-45-45-45zm-205 0h110v30h-110zm220 437c0 8.271-6.729 15-15 15h-300c-8.271 0-15-6.729-15-15v-392c0-8.271 6.729-15 15-15h65v15c0 8.284 6.716 15 15 15h140c8.284 0 15-6.716 15-15v-15h65c8.271 0 15 6.729 15 15z" fill="#8b8787" data-original="#000000" style="" class=""/><path d="m315 120h-150c-8.284 0-15 6.716-15 15s6.716 15 15 15h10v165c0 35.841 29.159 65 65 65s65-29.159 65-65v-165h10c8.284 0 15-6.716 15-15s-6.716-15-15-15zm-75 230c-19.299 0-35-15.701-35-35v-95h70v95c0 19.299-15.701 35-35 35zm35-160h-70v-40h70z" fill="#8b8787" data-original="#000000" style="" class=""/><path d="m315 420h-240c-8.284 0-15 6.716-15 15s6.716 15 15 15h240c8.284 0 15-6.716 15-15s-6.716-15-15-15z" fill="#8b8787" data-original="#000000" style="" class=""/><path d="m75 390h80c8.284 0 15-6.716 15-15s-6.716-15-15-15h-80c-8.284 0-15 6.716-15 15s6.716 15 15 15z" fill="#8b8787" data-original="#000000" style="" class=""/><path d="m75 330h55c8.284 0 15-6.716 15-15s-6.716-15-15-15h-55c-8.284 0-15 6.716-15 15s6.716 15 15 15z" fill="#8b8787" data-original="#000000" style="" class=""/><path d="m75 270h55c8.284 0 15-6.716 15-15s-6.716-15-15-15h-55c-8.284 0-15 6.716-15 15s6.716 15 15 15z" fill="#8b8787" data-original="#000000" style="" class=""/><path d="m75 210h55c8.284 0 15-6.716 15-15s-6.716-15-15-15h-55c-8.284 0-15 6.716-15 15s6.716 15 15 15z" fill="#8b8787" data-original="#000000" style="" class=""/><path d="m511.158 170.045-35-100c-2.106-6.017-7.784-10.045-14.158-10.045s-12.052 4.028-14.158 10.045l-35 100c-.557 1.593-.842 3.267-.842 4.955v302c0 19.299 15.701 35 35 35h30c19.299 0 35-15.701 35-35v-302c0-1.688-.285-3.362-.842-4.955zm-69.158 19.955h40v232h-40zm20-69.594 13.858 39.594h-27.716zm20 356.594c0 2.757-2.243 5-5 5h-30c-2.757 0-5-2.243-5-5v-25h40z" fill="#8b8787" data-original="#000000" style="" class=""/></g></g></svg>
