<?xml version="1.0"?>
<svg xmlns="http://www.w3.org/2000/svg" xmlns:xlink="http://www.w3.org/1999/xlink" xmlns:svgjs="http://svgjs.com/svgjs" version="1.1" width="512" height="512" x="0" y="0" viewBox="0 0 512 512" style="enable-background:new 0 0 512 512" xml:space="preserve" class=""><g><g xmlns="http://www.w3.org/2000/svg"><path d="m331 222.458v-192.458h30v-30h-210v30h30v192.458l-146.386 219.581c-9.224 13.835-10.079 31.536-2.233 46.196 7.845 14.659 23.047 23.765 39.674 23.765h367.89c16.627 0 31.829-9.106 39.675-23.766s6.99-32.361-2.233-46.196zm-120 9.084v-201.542h90v201.542l38.554 57.831c-7.511-1.431-15.502-2.373-23.554-2.373-33.16 0-65.354 15.906-66.708 16.583-7.464 3.732-31.586 13.417-53.292 13.417-13.421 0-27.137-3.555-37.301-7.007zm242.169 242.537c-1.274 2.381-5.115 7.921-13.225 7.921h-367.889c-8.109 0-11.95-5.54-13.225-7.921-1.274-2.382-3.754-8.651.744-15.399l81.989-122.983c12.62 4.859 33.325 11.303 54.437 11.303 33.16 0 65.354-15.906 66.708-16.583 7.463-3.732 31.585-13.417 53.292-13.417 20.542 0 41.785 8.324 49.878 11.857l86.548 129.822c4.497 6.749 2.018 13.017.743 15.4z" fill="#8b8787" data-original="#000000" style="" class=""/><path d="m301 362h30v30h-30z" fill="#8b8787" data-original="#000000" style="" class=""/><path d="m241 422h30v30h-30z" fill="#8b8787" data-original="#000000" style="" class=""/><path d="m181 392h30v30h-30z" fill="#8b8787" data-original="#000000" style="" class=""/><path d="m241 242h30v30h-30z" fill="#8b8787" data-original="#000000" style="" class=""/></g></g></svg>
