<?xml version="1.0"?>
<svg xmlns="http://www.w3.org/2000/svg" xmlns:xlink="http://www.w3.org/1999/xlink" xmlns:svgjs="http://svgjs.com/svgjs" version="1.1" width="512" height="512" x="0" y="0" viewBox="0 0 24 24" style="enable-background:new 0 0 512 512" xml:space="preserve" class=""><g><path xmlns="http://www.w3.org/2000/svg" d="m11.5 24h-10c-.827 0-1.5-.673-1.5-1.5v-11c0-.276.224-.5.5-.5h11c.276 0 .5.224.5.5v12c0 .276-.224.5-.5.5zm-10.5-12v10.5c0 .276.224.5.5.5h9.5v-11z" fill="#838282" data-original="#000000" style="" class=""/><path xmlns="http://www.w3.org/2000/svg" d="m22.5 24h-11c-.276 0-.5-.224-.5-.5v-20c0-.276.224-.5.5-.5h12c.276 0 .5.224.5.5v19c0 .827-.673 1.5-1.5 1.5zm-10.5-1h10.5c.276 0 .5-.224.5-.5v-18.5h-11z" fill="#838282" data-original="#000000" style="" class=""/><path xmlns="http://www.w3.org/2000/svg" d="m.5 12c-.052 0-.105-.008-.158-.026-.262-.087-.403-.37-.316-.632l1-3c.068-.204.259-.342.474-.342h10c.276 0 .5.224.5.5s-.224.5-.5.5h-9.64l-.886 2.658c-.07.21-.265.342-.474.342z" fill="#838282" data-original="#000000" style="" class=""/><path xmlns="http://www.w3.org/2000/svg" d="m23.5 4c-.209 0-.404-.132-.474-.342l-.886-2.658h-9.28l-.886 2.658c-.087.262-.369.403-.632.316-.262-.087-.403-.37-.316-.632l1-3c.068-.204.259-.342.474-.342h10c.215 0 .406.138.474.342l1 3c.087.262-.054.545-.316.632-.053.018-.106.026-.158.026z" fill="#838282" data-original="#000000" style="" class=""/></g></svg>
