<?xml version="1.0"?>
<svg xmlns="http://www.w3.org/2000/svg" xmlns:xlink="http://www.w3.org/1999/xlink" xmlns:svgjs="http://svgjs.com/svgjs" version="1.1" width="512" height="512" x="0" y="0" viewBox="0 0 24 24" style="enable-background:new 0 0 512 512" xml:space="preserve" class=""><g><g xmlns="http://www.w3.org/2000/svg"><path d="m.75 12.5h-.75v9.75c0 .96.79 1.75 1.75 1.75h7.5v-.75-.75-10h-7.75z" fill="#838282" data-original="#000000" style="" class=""/></g><g xmlns="http://www.w3.org/2000/svg"><path d="m1.04 8.51-.83 2.49h.79.79 7.46v-1.5-.75-.75h-7.5c-.32 0-.61.21-.71.51z" fill="#838282" data-original="#000000" style="" class=""/></g><g xmlns="http://www.w3.org/2000/svg"><path d="m12.54 3h9.67.79.79l-.83-2.49c-.1-.3-.39-.51-.71-.51h-9.75c-.32 0-.61.21-.71.51l-.83 2.49h.79z" fill="#838282" data-original="#000000" style="" class=""/></g><g xmlns="http://www.w3.org/2000/svg"><path d="m23.25 4.5h-.75-10.25-.75-.75v3.5.75 2.25.75.75 10.75.75h.75 10.75c.96 0 1.75-.79 1.75-1.75v-17.75z" fill="#838282" data-original="#000000" style="" class=""/></g></g></svg>
